<svg width="47" height="485" viewBox="0 0 47 485" fill="none" xmlns="http://www.w3.org/2000/svg">
<path d="M47 427.579L0.470001 456.158V399L47 427.579Z" fill="#A855F7"/>
<path d="M47 370.579L0.470001 399.158V342L47 370.579Z" fill="#A855F7"/>
<path d="M47 313.579L0.470001 342.158V285L47 313.579Z" fill="#A855F7"/>
<path d="M47 256.579L0.470001 285.158V228L47 256.579Z" fill="#A855F7"/>
<path d="M47 199.579L0.470001 228.158V171L47 199.579Z" fill="#A855F7"/>
<path d="M47 142.579L0.470001 171.158V114L47 142.579Z" fill="#A855F7"/>
<path d="M47 85.5789L0.470001 114.158V57.0001L47 85.5789Z" fill="#A855F7"/>
<path d="M47 28.5788L0.470001 57.1576V0L47 28.5788Z" fill="#A855F7"/>
<path d="M46.53 456.158L0 484.737V427.579L46.53 456.158Z" fill="#A855F7"/>
<path d="M46.53 399.158L0 427.737V370.579L46.53 399.158Z" fill="#A855F7"/>
<path d="M46.53 342.158L0 370.737V313.579L46.53 342.158Z" fill="#A855F7"/>
<path d="M46.53 285.158L0 313.737V256.579L46.53 285.158Z" fill="#A855F7"/>
<path d="M46.53 228.158L0 256.737V199.579L46.53 228.158Z" fill="#A855F7"/>
<path d="M46.53 171.158L0 199.737V142.579L46.53 171.158Z" fill="#A855F7"/>
<path d="M46.53 114.158L0 142.737V85.5789L46.53 114.158Z" fill="#A855F7"/>
<path d="M46.53 57.1577L0 85.7365V28.5789L46.53 57.1577Z" fill="#A855F7"/>
</svg>
