<svg width="648" height="319" viewBox="0 0 648 319" fill="none" xmlns="http://www.w3.org/2000/svg">
<path d="M59.3893 225.828C59.4332 225.215 59.7323 224.733 60.2866 224.381L61.078 224.264C61.2856 224.3 61.4175 224.281 61.4737 224.205C61.6519 224.044 61.8729 223.943 62.1367 223.904C62.4664 223.855 62.7962 223.807 63.1259 223.758L64.214 223.596C64.402 223.501 64.628 223.434 64.8917 223.395C65.2215 223.346 65.4572 223.344 65.5988 223.391C65.6746 223.447 65.9432 223.441 66.4048 223.372L68.8778 223.005C69.7253 222.812 70.5117 222.662 71.2371 222.554C71.9625 222.447 72.6549 222.344 73.3144 222.246C73.5122 222.217 73.8139 222.206 74.2193 222.213C74.6809 222.144 75.0107 222.096 75.2085 222.066C75.6042 222.007 75.896 221.93 76.0841 221.835C76.216 221.816 76.3149 221.801 76.3808 221.791C76.437 221.715 76.498 221.673 76.564 221.663C77.1575 221.575 77.734 221.826 78.2934 222.417C78.6061 222.708 79.5712 224.216 81.1887 226.941C81.626 227.618 82.2637 228.736 83.1018 230.297C83.9961 231.782 85.1566 233.699 86.5835 236.048C87.0404 236.857 87.5927 237.853 88.2402 239.037C88.9536 240.212 89.8002 241.603 90.78 243.21C91.6938 244.827 92.384 246.072 92.8507 246.946C93.3834 247.811 93.7303 248.332 93.8916 248.511C93.9771 248.633 94.0724 248.821 94.1774 249.075C94.3387 249.253 94.5512 249.323 94.815 249.284C95.0787 249.244 95.257 249.083 95.3498 248.8C95.3498 248.8 95.3864 248.592 95.4596 248.177C95.9208 246.289 96.271 244.788 96.5101 243.674C96.8152 242.55 97.0092 241.814 97.0922 241.465C97.5632 239.643 98.0013 237.825 98.4063 236.013C98.8774 234.191 99.3154 232.373 99.7205 230.561C99.7107 230.495 100.343 227.941 101.617 222.9C101.607 222.834 101.639 222.593 101.712 222.178C101.851 221.753 101.967 221.399 102.06 221.115L102.894 218.565C103.034 218.14 103.23 217.875 103.484 217.77C103.804 217.655 104.162 217.568 104.558 217.51C105.105 217.563 105.444 217.58 105.576 217.561C105.774 217.532 106.071 217.487 106.466 217.429C106.852 217.304 107.144 217.227 107.342 217.198L115.453 215.994C115.707 215.889 116.098 215.798 116.625 215.719C116.757 215.7 116.955 215.67 117.219 215.631C117.549 215.582 117.916 215.562 118.322 215.569L118.717 215.51C119.077 215.659 119.421 215.709 119.751 215.66C119.817 215.65 119.883 215.641 119.948 215.631C120.005 215.555 120.099 215.507 120.231 215.488C120.343 215.336 120.475 215.317 120.626 215.429C121.288 215.803 121.729 216.276 121.949 216.85C122.064 217.17 122.214 217.957 122.4 219.21C122.576 220.397 122.826 222.078 123.149 224.255C123.547 226.487 124.012 229.619 124.543 233.652C124.709 234.773 124.882 236.162 125.06 237.821C125.305 239.469 125.51 240.854 125.677 241.975L132.457 287.675C132.545 288.269 132.504 288.679 132.336 288.906C132.224 289.058 131.871 289.177 131.277 289.266C130.42 289.393 128.969 289.608 126.925 289.911C124.881 290.214 122.182 290.649 118.828 291.213L116.652 291.536C115.927 291.644 115.238 291.544 114.586 291.236C113.869 287.771 113.496 285.939 113.467 285.741C113.369 285.082 113.208 283.993 112.983 282.477C112.758 280.96 112.431 278.987 112.003 276.556L111.284 271.709C111.309 270.964 111.157 269.942 110.829 268.643L110.771 268.247C110.685 268.125 110.567 268.008 110.415 267.896C110.274 267.849 110.151 267.935 110.049 268.152C109.824 268.455 109.67 268.781 109.587 269.131C109.439 269.49 109.299 269.915 109.17 270.406C109.107 270.887 108.996 271.274 108.837 271.567C108.754 271.916 108.601 272.478 108.379 273.252C108.147 273.961 107.962 274.527 107.823 274.953C107.481 276.284 107.13 277.549 106.768 278.748C106.407 279.948 106.046 281.147 105.685 282.346C105.463 283.121 105.173 283.669 104.817 283.992L104.025 284.109C103.564 284.177 102.97 284.265 102.245 284.373C101.519 284.481 100.799 284.621 100.083 284.795C99.358 284.902 98.6704 285.038 98.0208 285.202C97.3613 285.3 96.8667 285.373 96.537 285.422L95.6468 285.554C95.1192 285.632 94.6514 285.432 94.2434 284.954C94.2337 284.888 94.1481 284.766 93.9869 284.587C93.8916 284.399 93.8061 284.277 93.7304 284.221C93.3688 283.601 92.8312 282.703 92.1178 281.528C91.4043 280.354 90.5479 278.897 89.5486 277.158C89.0355 276.426 88.5225 275.693 88.0094 274.96C87.4963 274.228 87.0113 273.457 86.5544 272.649C86.3736 272.339 86.2405 272.122 86.155 272C86.0597 271.812 85.9741 271.69 85.8984 271.634C85.747 271.522 85.6004 271.442 85.4587 271.396C85.2315 271.228 85.1045 271.28 85.0777 271.554C85.0313 271.695 85.0277 271.898 85.0669 272.162C85.0987 272.831 85.1587 273.462 85.2468 274.056C85.325 274.583 85.4033 275.111 85.4816 275.639C85.616 276.09 85.737 276.679 85.8446 277.404C85.9523 278.13 86.0843 279.02 86.2409 280.075C86.5369 282.525 86.817 284.64 87.0812 286.421C87.3355 288.135 87.508 289.525 87.5986 290.59C87.628 290.788 87.7492 292.286 87.9622 295.085C87.5691 295.615 86.9769 295.939 86.1855 296.056L78.8657 297.142C78.404 297.211 77.5138 297.343 76.1949 297.539C74.876 297.734 73.0576 297.97 70.7398 298.247L70.443 298.291C70.2158 298.122 70.068 297.807 69.9995 297.346L63.2929 252.14C63.2245 251.679 63.1364 251.085 63.0288 250.36C62.9114 249.569 62.761 248.782 62.5777 248.001C62.4603 247.209 62.3526 246.484 62.2548 245.824C62.157 245.165 62.0836 244.67 62.0347 244.341C61.9075 243.483 61.6776 241.934 61.3449 239.691C61.0025 237.383 60.5195 234.355 59.8959 230.606L59.6024 228.627C59.5705 227.958 59.5252 227.426 59.4665 227.03C59.398 226.568 59.3723 226.168 59.3893 225.828ZM140.229 284.298C140.222 282.884 140.221 280.154 140.228 276.11C140.244 273.95 140.239 272.098 140.212 270.552C140.185 269.006 140.169 267.761 140.164 266.818C140.119 265.612 140.097 264.099 140.097 262.279C140.087 260.393 140.087 258.81 140.099 257.527C140.07 257.329 140.049 256.962 140.037 256.424C140.025 255.887 140.002 255.284 139.971 254.615C139.995 253.87 139.991 253.163 139.959 252.493C139.983 251.748 139.994 251.14 139.992 250.669C139.943 250.339 139.902 249.84 139.871 249.17C139.895 248.425 139.881 247.652 139.83 246.851C139.844 246.04 139.859 245.229 139.873 244.418C139.888 243.608 139.894 242.966 139.891 242.495C139.859 241.826 139.849 240.85 139.861 239.568C139.863 238.219 139.882 237.206 139.916 236.527C139.81 234.453 139.705 232.38 139.599 230.306C139.56 228.222 139.553 226.134 139.58 224.041C139.521 223.645 139.48 223.146 139.458 222.542C139.426 221.873 139.395 221.204 139.363 220.535C139.387 219.79 139.388 219.116 139.366 218.512C139.4 217.833 139.421 217.291 139.428 216.886C139.455 216.612 139.444 216.311 139.395 215.981C139.336 215.585 139.305 215.152 139.303 214.68C139.242 213.813 139.592 213.222 140.354 212.907C140.73 212.716 141.05 212.601 141.314 212.562C141.634 212.447 141.921 212.337 142.175 212.232C143.154 212.02 144.072 211.85 144.93 211.722C145.843 211.52 146.663 211.364 147.388 211.257L155.598 210.039C155.73 210.019 156.06 209.97 156.587 209.892C157.181 209.804 158.01 209.714 159.075 209.624L160.064 209.477C160.789 209.369 161.558 209.323 162.369 209.337C163.179 209.352 163.719 209.811 163.988 210.715C164.142 211.298 164.363 212.108 164.652 213.144C164.93 214.113 165.137 214.824 165.271 215.276C165.435 215.925 165.686 216.933 166.023 218.298C166.417 219.588 166.695 220.557 166.859 221.207C167.157 222.308 167.441 223.311 167.71 224.215C167.969 225.052 168.18 225.796 168.344 226.446C168.422 226.973 168.533 227.496 168.678 228.014C168.878 228.456 169.017 228.941 169.096 229.468C169.296 229.91 169.521 230.517 169.77 231.289C170.019 232.061 170.269 232.832 170.518 233.604C170.767 234.376 171.007 235.082 171.237 235.722C171.466 236.362 171.596 236.78 171.625 236.978C172.239 238.842 172.862 240.771 173.495 242.767C174.118 244.696 174.675 246.635 175.167 248.584C175.291 248.97 175.44 249.521 175.614 250.236C175.853 250.942 176.06 251.653 176.234 252.369C176.473 253.074 176.68 253.785 176.853 254.501C177.093 255.207 177.275 255.752 177.399 256.138C177.409 256.204 177.549 256.689 177.817 257.593C178.076 258.43 178.475 259.753 179.013 261.56C179.032 261.692 179.129 262.116 179.302 262.832C179.542 263.537 179.796 264.342 180.065 265.246C180.324 266.083 180.55 266.926 180.743 267.774C180.992 268.545 181.179 269.124 181.304 269.51C181.429 269.896 181.568 270.381 181.722 270.964C181.942 271.538 182.134 272.15 182.298 272.8C182.518 273.374 182.7 273.92 182.844 274.437C183.054 274.945 183.183 275.364 183.232 275.694C183.462 276.334 183.616 276.918 183.694 277.445C183.829 277.897 183.953 278.283 184.068 278.603C184.203 279.055 184.172 279.531 183.977 280.032C183.782 280.532 183.534 280.906 183.234 281.153C183.036 281.182 182.81 281.25 182.556 281.355C182.236 281.469 181.977 281.542 181.779 281.571C181.647 281.59 181.52 281.643 181.398 281.729C181.012 281.853 180.687 281.935 180.424 281.974C180.16 282.013 179.962 282.043 179.83 282.062L173.499 283.001L173.089 282.961L170.319 283.372C169.179 283.407 168.337 282.959 167.795 282.028C167.499 281.398 167.159 280.471 166.776 279.248C166.671 278.994 166.603 278.768 166.574 278.57C166.545 278.372 166.487 278.212 166.402 278.09C164.15 278.357 162.266 278.602 160.749 278.827C159.222 278.987 158.063 279.125 157.272 279.242L157.173 279.257C157.107 279.267 157.046 279.309 156.99 279.385L156.869 280.616C156.918 280.946 156.926 281.45 156.892 282.129C156.858 282.808 156.865 283.313 156.914 283.642C156.868 283.784 156.854 283.921 156.874 284.053C156.883 284.119 156.865 284.222 156.819 284.364C156.653 285.063 156.273 285.456 155.68 285.544C155.548 285.564 155.35 285.593 155.086 285.632C154.888 285.662 154.662 285.729 154.408 285.834C154.079 285.883 153.787 285.96 153.533 286.065C153.269 286.104 153.038 286.138 152.84 286.168C152.567 286.141 151.672 286.24 150.155 286.465L145.704 287.125C145.242 287.194 144.714 287.272 144.121 287.36C143.527 287.448 142.797 287.523 141.93 287.584C141.996 287.574 141.821 287.533 141.406 287.459C140.935 287.462 140.665 287.232 140.596 286.771C140.374 285.726 140.252 284.901 140.229 284.298ZM191.91 276.631C191.902 275.217 191.902 272.487 191.908 268.442C191.925 266.283 191.92 264.431 191.892 262.884C191.865 261.338 191.849 260.094 191.844 259.151C191.8 257.945 191.778 256.431 191.777 254.612C191.767 252.726 191.768 251.142 191.78 249.86C191.75 249.662 191.73 249.295 191.717 248.757C191.705 248.22 191.683 247.617 191.651 246.947C191.675 246.202 191.671 245.495 191.64 244.826C191.664 244.081 191.675 243.473 191.672 243.002C191.623 242.672 191.583 242.172 191.551 241.503C191.575 240.758 191.562 239.985 191.51 239.184C191.525 238.373 191.539 237.562 191.554 236.751C191.568 235.94 191.574 235.299 191.572 234.828C191.54 234.159 191.53 233.183 191.542 231.9C191.544 230.552 191.562 229.539 191.596 228.86C191.491 226.786 191.385 224.712 191.28 222.639C191.24 220.555 191.234 218.467 191.26 216.374C191.201 215.978 191.161 215.479 191.139 214.875C191.107 214.206 191.075 213.537 191.043 212.868C191.067 212.123 191.069 211.448 191.046 210.845C191.08 210.166 191.101 209.624 191.108 209.219C191.135 208.945 191.124 208.643 191.075 208.314C191.016 207.918 190.986 207.484 190.983 207.013C190.922 206.146 191.272 205.555 192.034 205.24C192.411 205.049 192.73 204.934 192.994 204.895C193.314 204.78 193.601 204.67 193.855 204.565C194.835 204.352 195.753 204.182 196.61 204.055C197.524 203.852 198.343 203.697 199.068 203.589L207.279 202.371C207.41 202.352 207.74 202.303 208.268 202.225C208.861 202.137 209.69 202.047 210.755 201.957L211.745 201.81C212.47 201.702 213.238 201.656 214.049 201.67C214.86 201.685 215.4 202.144 215.669 203.047C215.823 203.631 216.044 204.441 216.332 205.476C216.611 206.446 216.817 207.157 216.952 207.608C217.116 208.258 217.366 209.266 217.704 210.631C218.097 211.92 218.376 212.89 218.539 213.54C218.838 214.641 219.121 215.644 219.39 216.547C219.649 217.385 219.861 218.129 220.024 218.779C220.103 219.306 220.214 219.829 220.358 220.347C220.558 220.789 220.698 221.273 220.776 221.801C220.976 222.243 221.201 222.85 221.451 223.622C221.7 224.393 221.949 225.165 222.198 225.937C222.448 226.709 222.687 227.415 222.917 228.054C223.147 228.694 223.276 229.113 223.306 229.311C223.919 231.175 224.542 233.104 225.175 235.099C225.798 237.029 226.356 238.968 226.847 240.917C226.972 241.303 227.121 241.854 227.294 242.569C227.534 243.275 227.74 243.986 227.914 244.701C228.154 245.407 228.36 246.118 228.534 246.834C228.773 247.539 228.955 248.085 229.08 248.471C229.09 248.537 229.229 249.022 229.498 249.925C229.757 250.763 230.155 252.086 230.693 253.893C230.713 254.025 230.809 254.449 230.983 255.164C231.222 255.87 231.476 256.675 231.745 257.579C232.004 258.416 232.23 259.259 232.424 260.106C232.673 260.878 232.86 261.457 232.984 261.843C233.109 262.229 233.248 262.714 233.402 263.297C233.622 263.871 233.814 264.483 233.978 265.133C234.198 265.707 234.38 266.252 234.524 266.77C234.734 267.278 234.864 267.697 234.913 268.027C235.143 268.667 235.297 269.25 235.375 269.778C235.509 270.23 235.634 270.616 235.749 270.936C235.883 271.387 235.853 271.864 235.657 272.364C235.462 272.865 235.214 273.239 234.914 273.486C234.716 273.515 234.49 273.582 234.236 273.687C233.916 273.802 233.657 273.874 233.46 273.904C233.328 273.923 233.201 273.976 233.079 274.061C232.693 274.186 232.368 274.268 232.104 274.307C231.84 274.346 231.642 274.375 231.511 274.395L225.18 275.334L224.77 275.294L222 275.705C220.859 275.739 220.018 275.291 219.475 274.361C219.18 273.731 218.84 272.804 218.456 271.58C218.351 271.326 218.284 271.1 218.255 270.903C218.225 270.705 218.168 270.545 218.082 270.423C215.83 270.689 213.946 270.935 212.429 271.16C210.903 271.319 209.744 271.458 208.952 271.575L208.854 271.59C208.788 271.599 208.727 271.642 208.67 271.718L208.55 272.949C208.599 273.279 208.606 273.783 208.572 274.462C208.538 275.141 208.545 275.645 208.594 275.975C208.548 276.117 208.535 276.254 208.554 276.385C208.564 276.451 208.546 276.555 208.499 276.697C208.333 277.396 207.954 277.789 207.36 277.877C207.228 277.896 207.03 277.926 206.767 277.965C206.569 277.994 206.343 278.061 206.089 278.167C205.759 278.215 205.467 278.292 205.213 278.398C204.949 278.437 204.719 278.471 204.521 278.5C204.247 278.473 203.352 278.573 201.835 278.798L197.384 279.458C196.922 279.526 196.395 279.605 195.801 279.693C195.208 279.781 194.478 279.855 193.611 279.917C193.676 279.907 193.502 279.865 193.087 279.792C192.615 279.795 192.345 279.565 192.277 279.104C192.054 278.058 191.932 277.234 191.91 276.631ZM298.237 263.889C298.484 264.189 298.41 264.369 298.014 264.428C297.354 264.525 296.563 264.643 295.64 264.78C294.783 264.907 293.996 265.057 293.281 265.231C292.621 265.329 291.83 265.446 290.907 265.583C290.049 265.71 289.291 265.823 288.631 265.921C288.368 265.96 287.812 266.076 286.965 266.269C286.173 266.386 285.547 266.479 285.085 266.548C284.689 266.607 283.498 266.75 281.509 266.977C281.246 267.016 280.784 267.085 280.125 267.183C279.455 267.215 278.956 267.255 278.626 267.304C278.494 267.324 278.165 267.372 277.637 267.451C277.571 267.46 277.505 267.47 277.439 267.48C277.288 267.368 277.046 267.1 276.714 266.678C276.069 265.965 275.129 264.857 273.895 263.355C273.563 262.933 273.112 262.393 272.543 261.736C272.03 261.004 271.532 260.37 271.048 259.835C270.62 259.225 270.198 258.647 269.78 258.103C269.458 257.746 268.727 256.911 267.589 255.597C266.506 254.207 265.676 253.151 265.097 252.428C264.271 251.405 263.113 249.959 261.623 248.091C260.122 246.157 259.164 244.918 258.746 244.373L259.274 247.934C260.517 256.309 261.216 261.024 261.373 262.079C261.412 262.343 261.428 262.678 261.42 263.083C261.469 263.413 261.518 263.743 261.567 264.072C261.606 264.336 261.622 264.671 261.615 265.076C261.664 265.406 261.708 265.703 261.747 265.967C261.808 266.834 261.854 267.366 261.883 267.564C262.027 268.082 262.025 268.52 261.876 268.879C261.727 269.238 261.502 269.541 261.202 269.788C260.892 269.969 260.478 270.131 259.96 270.275C259.696 270.315 258.839 270.442 257.388 270.657C254.553 271.078 252.64 271.361 251.651 271.508C251.321 271.557 250.86 271.626 250.266 271.714C249.729 271.726 249.427 271.737 249.361 271.747C248.758 271.769 248.357 271.795 248.16 271.824C247.444 271.997 246.516 272.101 245.375 272.136C244.498 272.131 243.991 271.667 243.855 270.744C243.796 270.348 243.639 269.293 243.385 267.579C243.131 265.864 242.94 264.578 242.813 263.721C242.311 259.886 241.679 255.397 240.916 250.253C240.818 249.594 240.666 248.572 240.461 247.187C240.255 245.802 240.099 244.747 239.991 244.022C239.932 243.626 239.839 243 239.712 242.142C239.585 241.285 239.487 240.625 239.419 240.164C239.389 239.966 239.36 239.768 239.331 239.57C239.292 239.307 239.229 239.114 239.144 238.992C239.114 238.794 239.085 238.596 239.056 238.398C239.017 238.134 238.982 237.903 238.953 237.706C238.836 236.914 238.655 235.694 238.41 234.046C238.156 232.331 237.97 231.078 237.852 230.287C237.334 226.792 236.781 223.066 236.194 219.109C236.086 218.384 235.868 217.136 235.537 215.365C235.264 213.519 235.058 212.134 234.921 211.21C234.784 210.287 234.593 209.001 234.349 207.353C234.094 205.638 233.953 204.682 233.923 204.484C233.913 204.418 233.874 204.154 233.806 203.693C233.728 203.165 233.679 202.835 233.659 202.704C233.559 201.573 233.493 200.673 233.461 200.003C233.487 199.73 233.608 199.409 233.823 199.04C233.823 199.04 234.001 198.879 234.358 198.556C235.875 198.331 236.666 198.214 236.732 198.204C237.721 198.057 238.776 197.901 239.897 197.734C241.075 197.492 242.323 197.273 243.642 197.078C245.026 196.872 246.077 196.683 246.792 196.509C246.924 196.49 247.155 196.455 247.485 196.406C247.814 196.358 248.045 196.323 248.177 196.304C248.836 196.206 249.393 196.325 249.848 196.662C249.999 196.775 250.212 196.844 250.485 196.871C250.901 196.944 251.137 197.179 251.196 197.574C251.226 197.772 251.289 198.201 251.387 198.86C251.551 199.51 251.657 200 251.706 200.329C251.889 201.111 252.312 203.508 252.975 207.521L253.738 212.665C254.344 211.294 255.186 209.249 256.265 206.527C257.334 203.74 258.278 201.242 259.095 199.031C259.979 196.811 260.5 195.554 260.659 195.261C260.864 194.826 261.193 194.541 261.644 194.407C262.36 194.233 263.839 193.98 266.081 193.648C267.937 193.44 270.354 193.148 273.331 192.774C276.365 192.324 278.442 192.016 279.563 191.85C279.563 191.85 279.86 191.805 280.453 191.717C280.529 191.774 280.567 191.802 280.567 191.802C281.021 192.139 281.263 192.406 281.293 192.604C281.312 192.736 281.191 193.057 280.93 193.568C280.408 194.589 275.912 205.399 267.443 225.998C267.331 226.149 267.351 226.281 267.502 226.394C267.824 226.75 269.011 228.158 271.06 230.617C273.1 233.01 275.15 235.469 277.21 237.995C279.259 240.454 280.574 242.045 281.153 242.768C281.646 243.368 282.23 244.124 282.904 245.035C283.635 245.87 284.332 246.71 284.997 247.555C285.652 248.334 286.231 249.057 286.734 249.724C288.879 252.371 290.901 254.868 292.799 257.215C293.454 257.994 294.355 259.073 295.503 260.453C296.652 261.833 297.435 262.795 297.853 263.34C297.938 263.462 298.066 263.645 298.237 263.889Z" fill="#0C0C0C"/>
<path d="M90.5599 182.555C90.884 182.942 90.7892 183.177 90.2755 183.257C89.4194 183.392 88.392 183.553 87.1933 183.742C86.0803 183.917 85.0597 184.121 84.1314 184.354C83.2752 184.489 82.2478 184.65 81.0492 184.839C79.9362 185.014 78.9516 185.168 78.0954 185.303C77.753 185.357 77.032 185.514 75.9324 185.775C74.905 185.936 74.0917 186.064 73.4924 186.158C72.9787 186.239 71.4309 186.438 68.8489 186.756C68.5065 186.81 67.9072 186.904 67.051 187.039C66.1814 187.088 65.5325 187.146 65.1045 187.213C64.9332 187.24 64.5052 187.307 63.8202 187.415C63.7346 187.428 63.649 187.442 63.5634 187.455C63.3652 187.311 63.0478 186.966 62.6112 186.421C61.7648 185.501 60.5313 184.072 58.9107 182.133C58.474 181.588 57.882 180.891 57.1347 180.043C56.4596 179.097 55.8046 178.279 55.1698 177.589C54.6072 176.8 54.0513 176.054 53.5021 175.351C53.0789 174.891 52.12 173.813 50.6253 172.118C49.2029 170.324 48.1112 168.96 47.3505 168.027C46.2656 166.706 44.744 164.84 42.7858 162.428C40.8142 159.93 39.5537 158.33 39.0046 157.626L39.7312 162.25C41.44 173.123 42.402 179.244 42.6173 180.614C42.6711 180.957 42.6956 181.392 42.6907 181.919C42.758 182.347 42.8253 182.775 42.8925 183.203C42.9464 183.545 42.9708 183.98 42.966 184.507C43.0332 184.935 43.0938 185.321 43.1476 185.663C43.2369 186.79 43.3017 187.481 43.3421 187.738C43.5354 188.41 43.5372 188.98 43.3476 189.448C43.1581 189.916 42.8694 190.313 42.4817 190.637C42.0805 190.875 41.5442 191.091 40.8727 191.285C40.5303 191.338 39.4173 191.513 37.5337 191.809C33.8523 192.388 31.3694 192.778 30.0852 192.98C29.6571 193.047 29.0578 193.141 28.2872 193.262C27.5888 193.284 27.1968 193.302 27.1112 193.316C26.3272 193.351 25.8068 193.389 25.55 193.429C24.6216 193.663 23.4163 193.809 21.9339 193.866C20.794 193.87 20.1299 193.272 19.9415 192.074C19.8607 191.56 19.6455 190.19 19.2956 187.964C18.9458 185.738 18.6834 184.069 18.5085 182.956C17.8137 177.976 16.9415 172.148 15.892 165.47C15.7575 164.614 15.5489 163.287 15.2664 161.489C14.9838 159.691 14.7685 158.321 14.6205 157.379C14.5398 156.865 14.412 156.052 14.237 154.939C14.0621 153.826 13.9276 152.97 13.8334 152.371C13.793 152.114 13.7526 151.857 13.7123 151.6C13.6585 151.258 13.5753 151.008 13.4628 150.85C13.4224 150.593 13.382 150.336 13.3417 150.079C13.2878 149.737 13.2407 149.437 13.2004 149.18C13.0389 148.153 12.79 146.569 12.4536 144.429C12.1038 142.203 11.8481 140.576 11.6867 139.548C10.9735 135.011 10.2133 130.174 9.40598 125.037C9.25797 124.095 8.95951 122.475 8.5106 120.177C8.13386 117.779 7.8513 115.981 7.66292 114.783C7.47455 113.584 7.21217 111.915 6.87579 109.774C6.52595 107.548 6.33085 106.307 6.29048 106.05C6.27703 105.964 6.2232 105.622 6.12902 105.023C6.02138 104.338 5.9541 103.91 5.92719 103.738C5.78406 102.269 5.68803 101.1 5.6391 100.231C5.67089 99.8747 5.82438 99.4558 6.09957 98.9739C6.09957 98.9739 6.3295 98.7623 6.78938 98.3391C8.75854 98.0296 9.78593 97.8682 9.87155 97.8547C11.1558 97.6529 12.5256 97.4376 13.9811 97.2088C15.5087 96.881 17.1287 96.5826 18.841 96.3135C20.639 96.0309 22.0021 95.7728 22.9304 95.5392C23.1016 95.5123 23.4013 95.4652 23.8294 95.3979C24.2574 95.3306 24.5571 95.2835 24.7283 95.2566C25.5845 95.1221 26.3098 95.2713 26.9042 95.7042C27.1024 95.8486 27.3794 95.9366 27.7353 95.9684C28.2759 96.0589 28.5866 96.361 28.6673 96.8747C28.7077 97.1316 28.7951 97.6881 28.9297 98.5442C29.1499 99.3869 29.2936 100.022 29.3609 100.45C29.6079 101.464 30.1847 104.576 31.0911 109.785L32.1406 116.463C32.9123 114.675 33.9843 112.006 35.3565 108.457C36.7153 104.822 37.9139 101.563 38.9523 98.6798C40.0762 95.7835 40.7397 94.144 40.9428 93.7611C41.2045 93.1936 41.6283 92.82 42.2141 92.6402C43.1425 92.4065 45.0621 92.061 47.973 91.6035C50.3837 91.3124 53.5222 90.9069 57.3883 90.387C61.3267 89.7681 64.0235 89.3442 65.479 89.1155C65.479 89.1155 65.8643 89.0549 66.6348 88.9338C66.7339 89.006 66.7834 89.0421 66.7834 89.0421C67.3779 89.475 67.6953 89.8199 67.7356 90.0768C67.7625 90.248 67.609 90.6669 67.2752 91.3335C66.6074 92.6667 60.8842 106.77 50.1055 133.642C49.9612 133.84 49.9881 134.012 50.1863 134.156C50.6095 134.616 52.1671 136.433 54.8591 139.606C57.5378 142.695 60.2298 145.869 62.9353 149.128C65.6274 152.302 67.3538 154.355 68.1146 155.289C68.7628 156.064 69.5303 157.04 70.4171 158.217C71.376 159.294 72.2921 160.378 73.1654 161.469C74.0253 162.475 74.786 163.408 75.4477 164.269C78.2658 167.686 80.9218 170.91 83.4157 173.939C84.2755 174.945 85.4595 176.338 86.9676 178.119C88.4757 179.899 89.5043 181.141 90.0535 181.845C90.166 182.002 90.3348 182.239 90.5599 182.555ZM90.0715 111.701L87.3065 94.1072C87.2661 93.8504 87.1358 93.3006 86.9157 92.4579C86.7811 91.6017 86.7432 91.0813 86.8019 90.8966C86.6943 90.2117 86.5933 89.5696 86.4992 88.9703C86.4906 88.3575 86.4955 87.8304 86.5138 87.3888C86.4869 87.2176 86.6404 86.7987 86.9743 86.1321C87.1455 86.1052 87.3755 85.8936 87.6641 85.4973C87.8353 85.4704 88.0133 85.4863 88.198 85.545C88.3692 85.5181 88.5404 85.4912 88.7117 85.4643C89.1397 85.397 89.5116 85.2508 89.8271 85.0258C89.9983 84.9989 90.4264 84.9316 91.1113 84.8239C91.7828 84.6307 92.461 84.4802 93.1459 84.3726C93.9165 84.2515 94.3513 84.227 94.4504 84.2992L107.421 82.2607C108.719 82.1445 109.462 82.6857 109.65 83.8843C109.844 84.5558 110.007 85.3196 110.142 86.1758C110.263 86.9463 110.44 87.7957 110.674 88.724C111.271 91.964 111.825 95.2107 112.336 98.4641C112.848 101.717 113.359 104.971 113.87 108.224C113.938 108.652 114.065 109.466 114.254 110.664C114.442 111.863 114.734 113.44 115.129 115.396L115.23 116.038C115.45 116.881 115.995 117.278 116.865 117.229L123.671 116.159C124.514 115.939 124.911 115.394 124.862 114.524L122.783 101.297C122.433 99.0706 122.083 96.8445 121.733 94.6185C121.469 92.3791 121.205 90.1396 120.941 87.9001L120.275 83.6622C120.207 83.2341 120.205 82.6641 120.269 81.9523C120.292 80.9836 120.725 80.3892 121.568 80.169C121.983 80.0161 122.661 79.8657 123.603 79.7177L133.234 78.2039C133.491 78.1636 133.919 78.0963 134.519 78.0021C135.19 77.8088 135.697 77.6853 136.039 77.6315C138.108 77.3942 139.498 77.3073 140.21 77.3709C140.295 77.3574 140.424 77.3373 140.595 77.3103C140.766 77.2834 140.937 77.2565 141.109 77.2296C141.266 77.1171 141.431 77.0474 141.602 77.0205C141.886 77.1513 142.226 77.3611 142.622 77.6497C143.104 77.9249 143.372 78.2337 143.426 78.5762C143.659 79.5045 143.83 80.3111 143.938 80.9961C144.131 81.6675 144.261 82.2173 144.328 82.6454L146.528 96.6436C146.649 97.4141 146.797 98.3559 146.972 99.4689C147.134 100.496 147.259 101.573 147.349 102.7C147.523 103.813 147.692 104.883 147.853 105.91C148.001 106.852 148.115 107.58 148.196 108.093C148.802 111.946 149.279 114.986 149.629 117.212C149.979 119.438 150.165 120.9 150.187 121.598L152.528 136.495C152.717 137.694 152.939 139.107 153.194 140.733C153.45 142.36 153.789 144.237 154.211 146.364L158.066 170.893C158.119 171.235 158.117 171.499 158.058 171.683C157.995 172.395 157.663 172.798 157.064 172.892L139.984 175.577L137.672 175.94C136.901 176.061 136.154 176.047 135.428 175.898C134.973 175.794 134.712 175.528 134.645 175.1C134.497 174.158 134.272 173.009 133.971 171.653C133.657 170.211 133.426 169.019 133.278 168.077C132.829 165.779 132.383 163.217 131.939 160.392C131.481 157.481 130.97 154.227 130.405 150.631C130.176 149.176 129.988 147.977 129.84 147.036C129.692 146.094 129.541 145.416 129.388 145.001L129.146 143.46C129.057 142.333 128.949 141.649 128.823 141.405C128.504 140.49 127.952 140.051 127.168 140.086L120.875 141.075C119.961 141.394 119.534 142.032 119.597 142.987L119.94 145.17C119.967 145.341 119.994 145.512 120.021 145.684C120.259 146.085 120.313 146.427 120.182 146.711C120.222 146.968 120.28 147.617 120.356 148.658C120.504 149.599 120.619 150.327 120.699 150.841L123.525 168.82C123.606 169.334 123.684 170.111 123.76 171.152C123.822 172.107 123.874 172.713 123.914 172.97L124.257 175.153C124.271 175.239 124.304 175.453 124.358 175.795C124.398 176.052 124.43 176.53 124.452 177.228C123.676 177.876 122.903 178.261 122.133 178.382C119.406 178.898 117.273 179.278 115.732 179.52C114.276 179.749 113.377 179.89 113.035 179.944C112.35 180.051 111.537 180.179 110.595 180.327C109.824 180.448 108.84 180.603 107.641 180.791C106.515 180.881 105.138 181.053 103.511 181.309L101.585 181.611C101.162 181.152 100.932 180.53 100.897 179.746L92.6017 126.964C92.0048 123.724 91.5045 120.819 91.1009 118.251C90.6972 115.682 90.3541 113.499 90.0715 111.701ZM154.99 83.207C154.963 83.0358 154.853 82.6144 154.659 81.943C154.538 81.1724 154.5 80.652 154.546 80.3817C154.478 79.9536 154.398 79.4399 154.303 78.8406C154.295 78.2279 154.279 77.5723 154.257 76.8739C154.19 76.4458 154.337 75.9841 154.698 75.4887L154.934 75.3199C155.007 75.2209 155.2 75.0588 155.516 74.8338C155.687 74.8069 155.822 74.8295 155.921 74.9016C156.093 74.8747 156.264 74.8478 156.435 74.8209C156.692 74.7805 157.064 74.6344 157.551 74.3824C158.821 74.095 159.799 73.8974 160.484 73.7898C161.255 73.6687 161.726 73.5947 161.897 73.5678C162.154 73.5274 162.503 73.5164 162.944 73.5347C163.458 73.454 163.843 73.3935 164.1 73.3531L180.41 70.7899C182.379 70.4804 184.263 70.1844 186.061 69.9018C187.944 69.6058 189.749 69.366 191.475 69.1825C191.56 69.1691 191.731 69.1422 191.988 69.1018C192.331 69.048 192.851 69.0101 193.55 68.988C194.847 68.8718 195.845 68.8027 196.544 68.7807C197.229 68.673 197.657 68.6058 197.828 68.5788C198.797 68.6021 199.378 68.9494 199.571 69.6209C199.697 69.8643 199.814 70.3284 199.921 71.0134L202.666 88.479C202.814 89.4208 202.872 90.0696 202.84 90.4255C202.889 91.2951 202.443 91.804 201.501 91.952L189.173 93.8895C188.231 94.0375 187.332 94.1788 186.476 94.3134C185.619 94.4479 184.77 94.6253 183.927 94.8455C183.242 94.9531 182.62 95.1824 182.062 95.5335C181.575 95.7854 181.399 96.3395 181.533 97.1956L181.715 98.3515C182.07 100.05 182.334 101.456 182.509 102.569C182.671 103.597 182.785 104.324 182.852 104.752C182.987 105.609 183.203 106.145 183.5 106.361C183.883 106.564 184.417 106.612 185.102 106.504L192.165 105.394C192.336 105.368 192.728 105.35 193.341 105.341C193.94 105.247 194.589 105.189 195.288 105.167C196.157 105.118 197.07 105.062 198.025 105C198.993 105.023 199.637 105.492 199.957 106.407C200.069 106.565 200.159 106.858 200.226 107.286C200.787 111.409 201.289 114.883 201.733 117.708C202.177 120.534 202.52 122.717 202.762 124.258C202.789 124.429 202.836 124.729 202.903 125.157C202.971 125.585 203.009 126.105 203.017 126.718C202.98 127.601 202.669 128.133 202.083 128.312L188.727 130.411C187.713 130.659 187.244 131.303 187.32 132.343C187.329 132.956 187.43 133.598 187.623 134.27C187.875 134.757 187.989 135.484 187.966 136.453C188.024 137.935 188.299 139.69 188.794 141.718C188.928 142.574 189.522 143.007 190.577 143.017C190.761 143.076 191.068 143.072 191.496 143.004L192.266 142.883C192.609 142.829 193.251 142.729 194.193 142.581C195.22 142.419 195.998 142.341 196.525 142.346L204.102 141.155C204.714 141.146 205.406 141.081 206.177 140.96C206.947 140.839 207.81 140.747 208.765 140.685C210.076 140.655 210.862 141.189 211.123 142.289L214.15 161.552C214.258 162.237 214.289 162.715 214.244 162.985C214.252 163.598 213.914 163.958 213.229 164.066L192.296 167.355C191.954 167.409 191.44 167.49 190.755 167.598C190.07 167.705 189.349 167.862 188.592 168.069C187.822 168.19 187.051 168.311 186.28 168.432C185.596 168.54 184.996 168.634 184.483 168.715C184.311 168.742 183.156 168.924 181.015 169.26C178.96 169.583 175.829 170.031 171.62 170.605L169.308 170.968C168.971 170.495 168.741 169.873 168.62 169.102L160.325 116.32C159.715 112.995 159.215 110.09 158.824 107.608C158.434 105.125 158.111 103.07 157.856 101.443L154.99 83.207ZM217.335 116.046L217.113 114.633L217.241 114.613L213.73 92.2673C213.407 90.2125 212.974 87.7364 212.43 84.8389C211.96 81.8424 211.563 79.3167 211.24 77.2619L210.291 71.226C210.224 70.7979 210.15 70.327 210.069 69.8133C210.074 69.2862 210.065 68.6734 210.043 67.975C210.134 67.4344 210.409 66.9525 210.869 66.5293C211.527 66.2505 212.156 66.0639 212.755 65.9697C215.125 65.4218 217.509 64.9594 219.906 64.5827C222.389 64.1924 224.829 63.809 227.226 63.4322L229.153 63.1295C229.838 63.0218 230.48 62.9209 231.079 62.8267C231.751 62.6335 232.429 62.483 233.114 62.3754L235.682 61.9717C236.71 61.8103 238.043 61.6445 239.684 61.4745C241.324 61.3044 242.615 61.1454 243.556 60.9974C243.912 61.0292 244.225 61.0677 244.496 61.113C244.838 61.0592 245.237 61.0842 245.692 61.1882C245.778 61.1747 245.962 61.2334 246.246 61.3643C246.602 61.3961 246.872 61.4413 247.057 61.5C249.107 61.7043 251.627 62.668 254.617 64.3913C257.986 66.8448 260.712 69.3991 262.796 72.0544C264.867 74.6241 266.647 77.8536 268.135 81.743C268.176 81.9999 268.405 82.6218 268.823 83.6088C269.143 84.5237 269.432 85.5309 269.693 86.6304C270.026 87.6309 270.372 88.717 270.731 89.8887C270.826 90.488 271.023 91.4659 271.324 92.8223C271.697 94.0796 271.98 95.044 272.174 95.7155C272.367 96.3869 272.517 97.0651 272.625 97.7501C272.719 98.3494 272.82 98.9915 272.928 99.6764C273.363 101.889 273.709 103.809 273.964 105.435C274.22 107.062 274.428 108.389 274.59 109.416C274.599 110.029 274.773 111.976 275.113 115.256C275.364 117.41 275.457 118.843 275.394 119.555C275.499 123.574 275.307 127.376 274.818 130.962C274.414 134.535 273.639 138.254 272.492 142.119C272.302 142.587 272.113 143.056 271.923 143.524C271.72 143.907 271.566 144.326 271.462 144.781C270.429 147.136 268.979 149.075 267.113 150.597C266.797 150.822 266.179 151.357 265.26 152.204C263.867 153.388 262.009 154.689 259.688 156.106C258.458 156.65 257.207 157.066 255.936 157.354C254.665 157.641 253.388 157.886 252.104 158.088L250.049 158.411L248.379 158.673C248.023 158.641 247.674 158.652 247.332 158.706C247.075 158.746 246.854 158.737 246.67 158.679C246.485 158.62 246.221 158.617 245.879 158.671C245.536 158.725 245.286 158.808 245.128 158.921C244.885 159.047 244.378 159.17 243.608 159.291C242.936 159.485 242.301 159.628 241.701 159.722C241.188 159.803 240.717 159.877 240.289 159.945C237.891 160.321 235.922 160.631 234.381 160.873C232.926 161.102 231.849 161.227 231.15 161.249C230.979 161.276 229.504 161.376 226.723 161.55L226.21 161.631C225.57 161.468 225.111 161.058 224.832 160.4C224.625 159.643 224.445 159.057 224.293 158.642C224.212 158.128 224.158 157.786 224.131 157.615L219.085 125.509C219.072 125.423 218.901 124.617 218.573 123.089C218.318 121.462 217.905 119.115 217.335 116.046ZM277.268 57.4101C277.241 57.2388 277.395 56.8199 277.729 56.1533L277.965 55.9845C278.037 55.8855 278.067 55.7931 278.053 55.7075C278.126 55.6084 278.24 55.5026 278.398 55.3901C278.754 55.4219 279.146 55.4042 279.574 55.3369C280.088 55.2562 280.424 55.1595 280.581 55.047C281.767 54.773 282.702 54.5822 283.387 54.4745C284.072 54.3669 284.5 54.2996 284.671 54.2727C284.941 54.318 286.403 54.132 289.057 53.7149L297.533 52.3828C297.961 52.3156 298.297 52.2189 298.541 52.093C298.712 52.066 298.84 52.0459 298.926 52.0324C298.998 51.9333 299.12 51.8703 299.291 51.8434C299.462 51.8165 299.733 51.8618 300.102 51.9792C300.669 52.2409 301.066 52.5296 301.291 52.8451C302.038 53.6927 302.783 54.8039 303.525 56.1786C304.34 57.4543 305.035 58.5293 305.611 59.4038C308.055 63.2308 310.42 67.1141 312.706 71.0536C315.064 74.8941 317.344 78.7908 319.544 82.7438L320.05 83.4538C320.109 83.2691 320.125 83.0911 320.098 82.9199L320.206 82.7713L317.946 68.3878C317.852 67.7885 317.663 66.5899 317.381 64.792C317.098 62.994 316.809 61.1533 316.513 59.2697C316.289 57.2871 316.056 55.5253 315.814 53.9842C315.644 52.344 315.595 51.4744 315.667 51.3754C315.591 50.3345 316.096 49.641 317.182 49.2949L328.74 47.4784C329.768 47.3169 330.403 47.1732 330.647 47.0472C330.719 46.9481 330.84 46.8852 331.012 46.8582C331.354 46.8044 331.618 46.8069 331.802 46.8656C331.974 46.8387 332.494 46.8007 333.364 46.7518C334.305 46.6038 335.047 46.575 335.587 46.6655C335.673 46.6521 335.844 46.6252 336.101 46.5848C336.358 46.5444 336.693 46.4478 337.108 46.2949C337.676 46.5567 337.966 46.7303 337.98 46.8159C338.461 47.0911 338.799 47.5645 338.992 48.2359C339.145 48.6506 339.349 49.6712 339.605 51.2979C339.847 52.839 340.226 54.9727 340.743 57.6989L342.68 70.0276C342.761 70.5413 342.826 71.2329 342.875 72.1026C342.996 72.8731 343.13 73.7293 343.278 74.671C343.413 75.5272 343.505 76.3901 343.554 77.2597C343.675 78.0302 343.776 78.6724 343.856 79.186L353.443 140.187C353.564 140.958 353.481 141.541 353.192 141.938C350.551 142.44 348.039 142.923 345.655 143.385C343.258 143.762 340.946 144.125 338.72 144.475C337.179 144.717 335.681 144.953 334.226 145.181C332.842 145.311 331.466 145.484 330.096 145.699C329.871 145.383 329.758 145.226 329.758 145.226L329.61 145.117C328.709 143.855 328.028 142.866 327.564 142.149C327.1 141.432 326.812 140.995 326.7 140.837C325.998 139.719 324.951 138.085 323.561 135.935C322.242 133.686 320.586 130.963 318.592 127.767C318.367 127.452 317.897 126.692 317.182 125.489C316.466 124.285 315.456 122.602 314.151 120.438C313.939 120.208 313.539 119.613 312.949 118.653C312.445 117.68 312.024 116.956 311.687 116.483C311.561 116.239 311.313 116.059 310.944 115.942C310.907 116.825 310.922 117.48 310.99 117.908L313.936 136.658C314.367 139.398 314.566 140.946 314.534 141.302C314.61 142.342 314.679 143.34 314.742 144.296C314.876 145.152 315.004 145.965 315.125 146.736C315.193 147.164 315.026 147.497 314.624 147.736C314.066 148.087 313.486 148.309 312.887 148.403C310.161 148.92 308.07 149.292 306.615 149.521C305.245 149.736 304.517 149.85 304.431 149.864C304.003 149.931 302.805 150.12 300.835 150.429C298.866 150.739 296.12 151.126 292.596 151.592C292.511 151.606 292.418 151.576 292.319 151.504C292.035 151.373 291.84 150.966 291.732 150.281L283.316 96.7279C283.1 95.358 282.838 93.6885 282.529 91.7194C282.219 89.7502 281.82 87.4881 281.33 84.9331C280.841 82.3781 280.449 80.1588 280.153 78.2752C279.857 76.3917 279.614 74.8506 279.426 73.652L277.468 61.1949C277.414 60.8524 277.348 59.5908 277.268 57.4101ZM350.51 52.4793C350.483 52.308 350.373 51.8867 350.179 51.2152C350.058 50.4447 350.02 49.9243 350.066 49.654C349.998 49.2259 349.918 48.7122 349.823 48.1129C349.815 47.5001 349.8 46.8445 349.778 46.1461C349.71 45.7181 349.857 45.2564 350.218 44.761L350.454 44.5922C350.527 44.4931 350.72 44.3311 351.036 44.106C351.207 44.0791 351.342 44.1017 351.441 44.1739C351.613 44.147 351.784 44.1201 351.955 44.0932C352.212 44.0528 352.584 43.9066 353.071 43.6547C354.341 43.3672 355.319 43.1697 356.004 43.062C356.775 42.9409 357.246 42.8669 357.417 42.84C357.674 42.7997 358.023 42.7886 358.464 42.807C358.978 42.7263 359.363 42.6657 359.62 42.6253L375.93 40.0621C377.899 39.7526 379.783 39.4566 381.581 39.1741C383.464 38.878 385.269 38.6383 386.995 38.4548C387.08 38.4413 387.252 38.4144 387.508 38.3741C387.851 38.3202 388.371 38.2823 389.07 38.2603C390.367 38.1441 391.365 38.075 392.064 38.0529C392.749 37.9453 393.177 37.878 393.348 37.8511C394.317 37.8743 394.898 38.2217 395.091 38.8931C395.217 39.1365 395.334 39.6007 395.441 40.2856L398.186 57.7512C398.334 58.693 398.392 59.3419 398.361 59.6978C398.409 60.5674 397.963 61.0762 397.021 61.2242L384.693 63.1618C383.751 63.3098 382.852 63.4511 381.996 63.5856C381.14 63.7202 380.29 63.8975 379.447 64.1177C378.762 64.2253 378.141 64.4547 377.582 64.8057C377.095 65.0577 376.919 65.6117 377.053 66.4679L377.235 67.6237C377.59 69.3226 377.854 70.7285 378.029 71.8415C378.191 72.8689 378.305 73.5966 378.372 74.0247C378.507 74.8809 378.723 75.4172 379.02 75.6337C379.403 75.8367 379.937 75.8844 380.622 75.7768L387.685 74.6667C387.856 74.6398 388.248 74.622 388.861 74.6135C389.46 74.5193 390.109 74.4612 390.808 74.4391C391.677 74.3902 392.59 74.3345 393.545 74.2722C394.514 74.2954 395.158 74.7644 395.477 75.6793C395.589 75.8371 395.679 76.13 395.746 76.5581C396.307 80.6811 396.809 84.1552 397.253 86.9806C397.697 89.8059 398.04 91.9891 398.282 93.5302C398.309 93.7014 398.356 94.0011 398.423 94.4291C398.491 94.8572 398.529 95.3776 398.537 95.9904C398.501 96.8735 398.189 97.4049 397.603 97.5847L384.247 99.6837C383.233 99.9308 382.764 100.575 382.84 101.616C382.849 102.228 382.95 102.871 383.143 103.542C383.395 104.029 383.509 104.757 383.486 105.725C383.544 107.208 383.819 108.963 384.314 110.991C384.448 111.847 385.043 112.28 386.097 112.289C386.282 112.348 386.588 112.344 387.016 112.277L387.787 112.155C388.129 112.102 388.771 112.001 389.713 111.853C390.74 111.691 391.518 111.613 392.045 111.618L399.622 110.427C400.234 110.419 400.926 110.354 401.697 110.233C402.467 110.111 403.33 110.02 404.285 109.957C405.596 109.927 406.382 110.461 406.643 111.561L409.67 130.824C409.778 131.509 409.809 131.987 409.764 132.257C409.772 132.87 409.434 133.23 408.749 133.338L387.816 136.628C387.474 136.681 386.96 136.762 386.275 136.87C385.59 136.977 384.869 137.135 384.112 137.341C383.342 137.462 382.571 137.584 381.801 137.705C381.116 137.812 380.516 137.906 380.003 137.987C379.831 138.014 378.676 138.196 376.535 138.532C374.48 138.855 371.349 139.303 367.14 139.877L364.828 140.24C364.491 139.767 364.262 139.145 364.14 138.375L355.845 85.5924C355.235 82.2668 354.735 79.3626 354.344 76.8798C353.954 74.3969 353.631 72.3421 353.376 70.7154L350.51 52.4793Z" fill="#0C0C0C"/>
</svg>
